<mxfile host="app.diagrams.net" modified="2021-01-20T03:40:09.970Z" agent="5.0 (Windows NT 10.0; Win64; x64) AppleWebKit/537.36 (KHTML, like Gecko) Chrome/78.0.3904.70 Safari/537.36" etag="wPaNSBP4e74l_ugwIJco" version="14.1.9" type="github">
  <diagram id="tEZok7O5twctMSrRD2sH" name="第 1 页">
    <mxGraphModel dx="1422" dy="794" grid="1" gridSize="10" guides="1" tooltips="1" connect="1" arrows="1" fold="1" page="1" pageScale="1" pageWidth="827" pageHeight="1169" math="0" shadow="0">
      <root>
        <mxCell id="0" />
        <mxCell id="1" parent="0" />
        <mxCell id="TS-0E5JR7jDzZcB04G1X-1" value="" style="rounded=0;whiteSpace=wrap;html=1;" vertex="1" parent="1">
          <mxGeometry x="50" y="50" width="1070" height="550" as="geometry" />
        </mxCell>
        <mxCell id="TS-0E5JR7jDzZcB04G1X-2" value="" style="rounded=0;whiteSpace=wrap;html=1;dashed=1;" vertex="1" parent="1">
          <mxGeometry x="320" y="110" width="190" height="360" as="geometry" />
        </mxCell>
        <mxCell id="TS-0E5JR7jDzZcB04G1X-8" style="edgeStyle=orthogonalEdgeStyle;rounded=0;orthogonalLoop=1;jettySize=auto;html=1;exitX=0.5;exitY=1;exitDx=0;exitDy=0;entryX=0.5;entryY=0;entryDx=0;entryDy=0;" edge="1" parent="1" source="TS-0E5JR7jDzZcB04G1X-3" target="TS-0E5JR7jDzZcB04G1X-5">
          <mxGeometry relative="1" as="geometry" />
        </mxCell>
        <mxCell id="TS-0E5JR7jDzZcB04G1X-3" value="认证插件" style="rounded=0;whiteSpace=wrap;html=1;" vertex="1" parent="1">
          <mxGeometry x="350" y="215" width="120" height="50" as="geometry" />
        </mxCell>
        <mxCell id="TS-0E5JR7jDzZcB04G1X-7" style="edgeStyle=orthogonalEdgeStyle;rounded=0;orthogonalLoop=1;jettySize=auto;html=1;exitX=0.5;exitY=1;exitDx=0;exitDy=0;" edge="1" parent="1" source="TS-0E5JR7jDzZcB04G1X-4" target="TS-0E5JR7jDzZcB04G1X-3">
          <mxGeometry relative="1" as="geometry" />
        </mxCell>
        <mxCell id="TS-0E5JR7jDzZcB04G1X-4" value="上一个插件" style="rounded=0;whiteSpace=wrap;html=1;" vertex="1" parent="1">
          <mxGeometry x="350" y="135" width="120" height="50" as="geometry" />
        </mxCell>
        <mxCell id="TS-0E5JR7jDzZcB04G1X-9" style="edgeStyle=orthogonalEdgeStyle;rounded=0;orthogonalLoop=1;jettySize=auto;html=1;entryX=0.5;entryY=0;entryDx=0;entryDy=0;" edge="1" parent="1" source="TS-0E5JR7jDzZcB04G1X-5" target="TS-0E5JR7jDzZcB04G1X-6">
          <mxGeometry relative="1" as="geometry" />
        </mxCell>
        <mxCell id="TS-0E5JR7jDzZcB04G1X-5" value="鉴权插件" style="rounded=0;whiteSpace=wrap;html=1;" vertex="1" parent="1">
          <mxGeometry x="350" y="305" width="120" height="50" as="geometry" />
        </mxCell>
        <mxCell id="TS-0E5JR7jDzZcB04G1X-6" value="下一个插件" style="rounded=0;whiteSpace=wrap;html=1;" vertex="1" parent="1">
          <mxGeometry x="350" y="395" width="120" height="50" as="geometry" />
        </mxCell>
        <mxCell id="TS-0E5JR7jDzZcB04G1X-11" style="edgeStyle=orthogonalEdgeStyle;rounded=0;orthogonalLoop=1;jettySize=auto;html=1;entryX=0;entryY=0.5;entryDx=0;entryDy=0;curved=1;" edge="1" parent="1" source="TS-0E5JR7jDzZcB04G1X-10" target="TS-0E5JR7jDzZcB04G1X-3">
          <mxGeometry relative="1" as="geometry" />
        </mxCell>
        <mxCell id="TS-0E5JR7jDzZcB04G1X-10" value="从本地缓存读取token，匹配则放行；否则读取redis，如果存在本地缓存续期60秒，反正提示4012" style="text;html=1;strokeColor=none;fillColor=none;align=left;verticalAlign=middle;whiteSpace=wrap;rounded=0;fontSize=14;fontStyle=1" vertex="1" parent="1">
          <mxGeometry x="80" y="100" width="180" height="140" as="geometry" />
        </mxCell>
        <mxCell id="TS-0E5JR7jDzZcB04G1X-13" style="edgeStyle=orthogonalEdgeStyle;curved=1;rounded=0;orthogonalLoop=1;jettySize=auto;html=1;entryX=0;entryY=0.5;entryDx=0;entryDy=0;fontSize=14;" edge="1" parent="1" source="TS-0E5JR7jDzZcB04G1X-12" target="TS-0E5JR7jDzZcB04G1X-5">
          <mxGeometry relative="1" as="geometry" />
        </mxCell>
        <mxCell id="TS-0E5JR7jDzZcB04G1X-12" value="从本地缓存读取token，匹配则放行；否则读取redis，如果存在本地缓存续期60秒，反正提示4012" style="text;html=1;strokeColor=none;fillColor=none;align=left;verticalAlign=middle;whiteSpace=wrap;rounded=0;fontSize=14;fontStyle=1" vertex="1" parent="1">
          <mxGeometry x="80" y="255" width="180" height="140" as="geometry" />
        </mxCell>
        <mxCell id="TS-0E5JR7jDzZcB04G1X-14" value="Redis" style="shape=cylinder3;whiteSpace=wrap;html=1;boundedLbl=1;backgroundOutline=1;size=15;fontSize=14;" vertex="1" parent="1">
          <mxGeometry x="820" y="245" width="100" height="90" as="geometry" />
        </mxCell>
        <mxCell id="TS-0E5JR7jDzZcB04G1X-15" style="edgeStyle=orthogonalEdgeStyle;curved=1;rounded=0;orthogonalLoop=1;jettySize=auto;html=1;fontSize=14;" edge="1" parent="1" source="TS-0E5JR7jDzZcB04G1X-3" target="TS-0E5JR7jDzZcB04G1X-14">
          <mxGeometry relative="1" as="geometry" />
        </mxCell>
        <mxCell id="TS-0E5JR7jDzZcB04G1X-18" value="获取token" style="edgeLabel;html=1;align=center;verticalAlign=middle;resizable=0;points=[];fontSize=14;fontStyle=1" vertex="1" connectable="0" parent="TS-0E5JR7jDzZcB04G1X-15">
          <mxGeometry x="-0.1385" y="-5" relative="1" as="geometry">
            <mxPoint as="offset" />
          </mxGeometry>
        </mxCell>
        <mxCell id="TS-0E5JR7jDzZcB04G1X-17" style="edgeStyle=orthogonalEdgeStyle;curved=1;rounded=0;orthogonalLoop=1;jettySize=auto;html=1;entryX=0;entryY=0.5;entryDx=0;entryDy=0;entryPerimeter=0;fontSize=14;" edge="1" parent="1" source="TS-0E5JR7jDzZcB04G1X-5" target="TS-0E5JR7jDzZcB04G1X-14">
          <mxGeometry relative="1" as="geometry" />
        </mxCell>
        <mxCell id="TS-0E5JR7jDzZcB04G1X-22" value="1、在三户中心获取登记的全部uri&lt;br&gt;-------------------------------------&lt;br&gt;1、使用token获取用户角色&lt;br&gt;2、拿角色id获取uri" style="text;html=1;strokeColor=none;fillColor=none;align=left;verticalAlign=middle;whiteSpace=wrap;rounded=0;fontSize=14;fontStyle=1" vertex="1" parent="1">
          <mxGeometry x="550" y="355" width="220" height="105" as="geometry" />
        </mxCell>
        <mxCell id="TS-0E5JR7jDzZcB04G1X-24" style="edgeStyle=orthogonalEdgeStyle;curved=1;rounded=0;orthogonalLoop=1;jettySize=auto;html=1;exitX=0;exitY=0.5;exitDx=0;exitDy=0;entryX=1;entryY=0.25;entryDx=0;entryDy=0;fontSize=14;" edge="1" parent="1" source="TS-0E5JR7jDzZcB04G1X-23" target="TS-0E5JR7jDzZcB04G1X-22">
          <mxGeometry relative="1" as="geometry" />
        </mxCell>
        <mxCell id="TS-0E5JR7jDzZcB04G1X-25" style="edgeStyle=orthogonalEdgeStyle;curved=1;rounded=0;orthogonalLoop=1;jettySize=auto;html=1;entryX=1.025;entryY=0.695;entryDx=0;entryDy=0;entryPerimeter=0;fontSize=14;" edge="1" parent="1" source="TS-0E5JR7jDzZcB04G1X-23" target="TS-0E5JR7jDzZcB04G1X-22">
          <mxGeometry relative="1" as="geometry" />
        </mxCell>
        <mxCell id="TS-0E5JR7jDzZcB04G1X-23" value="拿登记的uri 和 用户角色里的uri对比是否相等，相等则放行，反正4016" style="rounded=0;whiteSpace=wrap;html=1;fontSize=14;align=left;fontStyle=1" vertex="1" parent="1">
          <mxGeometry x="861" y="371" width="189" height="69" as="geometry" />
        </mxCell>
      </root>
    </mxGraphModel>
  </diagram>
</mxfile>
